<?xml version="1.0" encoding="UTF-8" standalone="no"?>
<!-- Created with Inkscape (http://www.inkscape.org/) -->

<svg
   width="118.49091mm"
   height="118.35332mm"
   viewBox="0 0 118.49091 118.35332"
   version="1.1"
   id="svg5"
   xml:space="preserve"
   inkscape:export-filename="add.svg"
   inkscape:export-xdpi="96"
   inkscape:export-ydpi="96"
   xmlns:inkscape="http://www.inkscape.org/namespaces/inkscape"
   xmlns:sodipodi="http://sodipodi.sourceforge.net/DTD/sodipodi-0.dtd"
   xmlns="http://www.w3.org/2000/svg"
   xmlns:svg="http://www.w3.org/2000/svg"><sodipodi:namedview
     id="namedview7"
     pagecolor="#ffffff"
     bordercolor="#000000"
     borderopacity="0.25"
     inkscape:showpageshadow="2"
     inkscape:pageopacity="0.0"
     inkscape:pagecheckerboard="0"
     inkscape:deskcolor="#d1d1d1"
     inkscape:document-units="mm"
     showgrid="false" /><defs
     id="defs2" /><g
     inkscape:label="Capa 1"
     inkscape:groupmode="layer"
     id="layer1"
     transform="translate(-36.206155,-72.468504)"><path
       style="fill:#e0f2fe;fill-opacity:1;stroke-width:0.264583"
       d="M 89.240929,190.54291 C 78.950869,189.50688 68.331839,185.32712 59.9515,179.0143 43.509548,166.62875 34.506458,146.35452 36.473219,126.14312 c 0.64941,-6.67366 2.791694,-14.34825 5.530413,-19.81234 1.333313,-2.66013 1.570949,-2.97645 2.655007,-3.53403 2.788841,-1.43443 6.085417,0.54926 6.085417,3.66186 0,0.44962 -0.640133,2.26915 -1.422519,4.04339 -3.461404,7.84955 -4.894232,14.99178 -4.588193,22.87081 0.520078,13.38951 6.034711,25.71269 15.627845,34.92248 18.09088,17.36797 46.130601,18.86986 66.185991,3.54511 2.38737,-1.82424 6.57777,-5.97064 8.59337,-8.50313 4.92217,-6.18446 8.19681,-13.02677 9.89162,-20.66841 5.09242,-22.96096 -6.04735,-46.171139 -27.17296,-56.615969 -15.3435,-7.58607 -33.255861,-6.87777 -48.381031,1.91309 -2.37281,1.3791 -6.49675,4.49153 -9.000666,6.79302 -2.168832,1.99349 -3.085735,2.38187 -4.844322,2.05196 -1.204619,-0.22599 -2.656841,-1.51018 -3.047964,-2.69529 -0.18444,-0.55886 -0.234505,-1.42841 -0.124916,-2.16959 0.164927,-1.11545 0.406502,-1.45362 2.459629,-3.44317 8.528159,-8.26407 19.649829,-13.61308 32.336619,-15.55242 4.217178,-0.64466 12.236298,-0.64231 16.536451,0.005 4.2331,0.63705 9.55221,2.01213 13.00438,3.36186 29.61643,11.57945 44.84432,44.005119 34.8286,74.162649 -8.02581,24.16587 -31.13301,40.61205 -56.676333,40.33846 -1.83011,-0.0196 -4.39904,-0.14352 -5.708728,-0.27538 z m 4.465928,-33.92109 c -0.45415,-0.20571 -1.16852,-0.82327 -1.5875,-1.37235 l -0.76176,-0.99832 -0.0759,-9.21527 -0.0759,-9.21528 h -8.862268 c -9.85258,0 -10.09227,-0.0357 -11.35663,-1.6934 -1.57602,-2.06627 -0.89051,-5.00126 1.44294,-6.17795 1.15373,-0.5818 1.38051,-0.59531 9.98802,-0.59531 h 8.807468 l 0.006,-8.7974 c 0.005,-8.10279 0.0459,-8.88575 0.51378,-9.91641 1.27483,-2.80831 5.1768,-3.17382 7.09173,-0.6643 l 0.72305,0.94756 0.0759,9.21527 0.0759,9.21528 8.787633,0.006 c 7.99742,0.005 8.88515,0.0501 9.87213,0.49833 1.60406,0.72848 2.35508,1.9326 2.35508,3.77593 0,1.62249 -0.44573,2.48121 -1.82127,3.50879 -0.69996,0.52288 -1.11314,0.54866 -9.96194,0.62139 l -9.231693,0.0759 -0.0759,9.23169 c -0.0727,8.8488 -0.0985,9.26198 -0.6214,9.96194 -0.30003,0.40163 -0.85671,0.96258 -1.23706,1.24655 -0.88295,0.65922 -2.98038,0.83523 -4.07024,0.34156 z"
       id="path803" /></g></svg>
