<?xml version="1.0" encoding="UTF-8" standalone="no"?>
<!-- Created with Inkscape (http://www.inkscape.org/) -->

<svg
   width="77.560829mm"
   height="86.445mm"
   viewBox="0 0 77.560829 86.445"
   version="1.1"
   id="svg5"
   xml:space="preserve"
   inkscape:export-filename="data.svg"
   inkscape:export-xdpi="96"
   inkscape:export-ydpi="96"
   sodipodi:docname="admin.svg"
   inkscape:version="1.2 (dc2aedaf03, 2022-05-15)"
   xmlns:inkscape="http://www.inkscape.org/namespaces/inkscape"
   xmlns:sodipodi="http://sodipodi.sourceforge.net/DTD/sodipodi-0.dtd"
   xmlns="http://www.w3.org/2000/svg"
   xmlns:svg="http://www.w3.org/2000/svg"><sodipodi:namedview
     id="namedview7"
     pagecolor="#ffffff"
     bordercolor="#000000"
     borderopacity="0.25"
     inkscape:showpageshadow="2"
     inkscape:pageopacity="0.0"
     inkscape:pagecheckerboard="0"
     inkscape:deskcolor="#d1d1d1"
     inkscape:document-units="mm"
     showgrid="false"
     inkscape:zoom="2.5618168"
     inkscape:cx="78.459944"
     inkscape:cy="226.01148"
     inkscape:window-width="1920"
     inkscape:window-height="1017"
     inkscape:window-x="-8"
     inkscape:window-y="-8"
     inkscape:window-maximized="1"
     inkscape:current-layer="layer1" /><defs
     id="defs2" /><g
     inkscape:label="Capa 1"
     inkscape:groupmode="layer"
     id="layer1"
     transform="translate(-92.472071,-121.67994)"><path
       style="fill:#172554;stroke-width:0.0883769;fill-opacity:1"
       d="m 145.01213,205.66865 v -2.4563 l -0.84559,-0.25403 c -2.31948,-0.69683 -4.75967,-2.09913 -6.48897,-3.72899 l -0.57541,-0.54234 -2.05806,1.18307 c -1.13193,0.65068 -2.08635,1.18284 -2.12092,1.18258 -0.0866,-6.8e-4 -4.21658,-7.16539 -4.21658,-7.31495 v -0.12029 l 1.98848,-1.15045 c 1.09366,-0.63275 2.02264,-1.18319 2.06439,-1.2232 l 0.0759,-0.0727 -0.22668,-0.9581 c -0.12467,-0.52695 -0.2733,-1.31602 -0.33029,-1.75348 l -0.10363,-0.79539 0.0492,-1.50241 0.0492,-1.50241 0.22876,-1.06052 c 0.12583,-0.58329 0.25169,-1.1635 0.27971,-1.28935 l 0.0509,-0.22883 -2.04006,-1.17024 c -1.12204,-0.64363 -2.06361,-1.20833 -2.09238,-1.25488 -0.0497,-0.0805 4.10865,-7.40464 4.20734,-7.41038 0.0259,-0.002 0.97741,0.53573 2.11443,1.19386 l 2.06731,1.19662 0.40431,-0.38822 c 1.84431,-1.7709 4.51315,-3.29208 7.0091,-3.99506 l 0.50678,-0.14273 0.0235,-2.44659 0.0235,-2.44659 4.26278,-0.0229 4.26279,-0.023 0.0235,2.44671 0.0235,2.4467 1.19309,0.40839 c 2.41951,0.82818 4.16218,1.83972 6.06914,3.52285 l 0.70666,0.62371 2.06211,-1.19109 c 1.13417,-0.6551 2.09251,-1.15999 2.12966,-1.12197 0.0371,0.038 1.00709,1.69599 2.15542,3.68438 l 2.08788,3.61527 -0.11549,0.10432 c -0.0635,0.0574 -0.97055,0.59244 -2.01561,1.18903 -1.04505,0.59659 -1.9357,1.11787 -1.97921,1.15839 l -0.0791,0.0737 0.23238,1.08746 c 0.54546,2.55249 0.55602,4.29491 0.0409,6.74357 -0.10226,0.48608 -0.18986,0.97837 -0.19465,1.09399 l -0.009,0.21021 2.00507,1.16149 c 1.10279,0.63882 2.03231,1.18872 2.06559,1.222 0.0767,0.0768 -4.1282,7.40081 -4.24741,7.39804 -0.0486,-10e-4 -1.00187,-0.53381 -2.11835,-1.18373 l -2.02998,-1.18168 -0.57755,0.54476 c -1.73573,1.63718 -4.22303,3.05744 -6.60892,3.77372 l -0.72525,0.21774 -0.0238,2.43036 -0.0238,2.43037 -4.30838,0.0229 -4.30837,0.0229 v -2.45631 z m 6.93759,-8.98406 0.88377,-0.23547 0.97214,-0.4683 c 8.75889,-4.21928 7.39678,-16.97296 -2.06934,-19.37554 l -0.8471,-0.215 -1.06052,-0.0515 -1.06052,-0.0515 -0.70702,0.10035 c -1.54867,0.21982 -2.98969,0.73672 -4.26761,1.53081 l -0.74997,0.46603 -0.90409,0.88377 -0.9041,0.88377 -0.44127,0.66283 c -0.86126,1.29367 -1.40288,2.62713 -1.64861,4.05881 l -0.14298,0.83306 v 0.98919 c 0,4.96282 3.554,9.23256 8.45372,10.15622 l 0.69329,0.1307 1.45822,-0.0314 1.45822,-0.0314 z m -25.18742,9.61214 c -16.28683,-0.5398 -27.412143,-2.44042 -31.943653,-5.45716 l -0.86183,-0.57374 -0.49078,-0.53011 c -0.26993,-0.29155 -0.604,-0.76067 -0.74237,-1.04247 l -0.2516,-0.51238 0.005,-3.97695 0.005,-3.97696 0.11072,-1.45822 c 1.24508,-16.39834 7.32553,-25.07137 19.764303,-28.19139 l 1.67916,-0.42119 0.0235,-1.31432 0.0235,-1.31433 -0.73052,-0.37252 c -5.21957,-2.66169 -8.96407,-7.91741 -9.93493,-13.94454 l -0.1566,-0.97214 3.5e-4,-1.76753 3.6e-4,-1.76754 0.15094,-0.97214 c 3.32706,-21.4271 34.21558,-21.39071 37.50287,0.0442 l 0.15587,1.01633 -0.002,1.67916 -0.002,1.67915 -0.15405,1.00784 c -0.91553,5.98997 -4.64762,11.2285 -9.98558,14.01623 l -0.6769,0.35351 0.0229,1.32367 0.0229,1.32366 0.88377,0.19622 c 2.34271,0.52015 4.1495,1.15095 6.27476,2.19071 l 1.5024,0.73504 1.19309,0.7925 1.19309,0.7925 -0.0287,0.71544 -0.0287,0.71544 -0.93577,0.49528 c -0.51468,0.2724 -1.20229,0.66768 -1.52803,0.8784 l -0.59225,0.38312 -0.60851,-0.35476 c -0.82253,-0.47954 -1.54692,-0.74255 -2.35462,-0.85489 l -0.67463,-0.0938 -0.65591,0.0832 c -1.59129,0.20176 -3.05796,1.11571 -3.90353,2.43246 -1.87341,2.91735 -4.85843,8.43394 -5.04958,9.33208 l -0.1393,0.65451 0.0543,0.74229 0.0543,0.74229 0.20988,0.60354 c 0.2924,0.84077 0.61068,1.35284 1.26146,2.02952 l 0.56028,0.58257 0.74126,0.43377 0.74127,0.43377 9e-5,1.82311 9e-5,1.82312 -0.67609,0.38147 -0.67608,0.38147 -0.66443,0.66766 -0.66443,0.66766 -0.3239,0.66283 -0.32389,0.66283 -0.13848,0.68119 c -0.39775,1.95657 -0.29348,2.24726 2.62451,7.31691 3.07023,5.33414 3.31635,5.63414 5.18838,6.32412 l 0.31187,0.11494 -2.82806,-0.0116 c -1.55544,-0.006 -3.14622,-0.0221 -3.53508,-0.035 z"
       id="path1298" /></g></svg>
