<?xml version="1.0" encoding="UTF-8" standalone="no"?>
<!-- Created with Inkscape (http://www.inkscape.org/) -->

<svg
   width="500"
   height="500"
   viewBox="0 0 132.29166 132.29166"
   version="1.1"
   id="svg1"
   xml:space="preserve"
   sodipodi:docname="cancel.svg"
   inkscape:export-filename="cancel.svg"
   inkscape:export-xdpi="96"
   inkscape:export-ydpi="96"
   xmlns:inkscape="http://www.inkscape.org/namespaces/inkscape"
   xmlns:sodipodi="http://sodipodi.sourceforge.net/DTD/sodipodi-0.dtd"
   xmlns="http://www.w3.org/2000/svg"
   xmlns:svg="http://www.w3.org/2000/svg"><sodipodi:namedview
     id="namedview1"
     pagecolor="#ffffff"
     bordercolor="#000000"
     borderopacity="0.25"
     inkscape:showpageshadow="2"
     inkscape:pageopacity="0.0"
     inkscape:pagecheckerboard="0"
     inkscape:deskcolor="#d1d1d1"
     inkscape:document-units="mm" /><defs
     id="defs1" /><g
     inkscape:label="Capa 1"
     inkscape:groupmode="layer"
     id="layer1"><path
       style="fill:#ffffff;fill-opacity:1;stroke-width:1.65789"
       d="M 50.1236,129.12443 C 1.8364382,116.0603 -14.322878,56.543468 20.863785,21.356806 55.020779,-12.800187 113.19838,1.5603948 127.83719,47.762172 142.71005,94.702593 97.570659,141.96131 50.1236,129.12443 Z M 77.888579,118.96792 C 96.893941,115.00458 114.51158,97.386967 118.4749,78.381594 129.40458,25.970299 66.453142,-8.5141511 28.722985,29.216007 -8.9969058,66.935903 25.49154,129.89464 77.888579,118.96792 Z M 40.44227,92.315066 c -2.978965,-3.291724 -1.838139,-5.433999 8.323742,-15.630587 9.974346,-10.008401 9.974346,-10.008401 0,-19.94533 -10.3468,-10.307964 -11.58035,-12.699836 -8.15045,-15.803858 3.328952,-3.01266 5.475544,-1.869537 15.630575,8.32374 9.936919,9.974347 9.936919,9.974347 19.945324,0 10.356576,-10.321326 12.731046,-11.545894 15.803879,-8.150447 2.978963,3.291718 1.838136,5.433995 -8.323747,15.630582 -9.974346,10.0084 -9.974346,10.0084 0,19.945329 10.346804,10.307965 11.580357,12.699836 8.150448,15.803854 -3.328944,3.012668 -5.475543,1.869536 -15.630573,-8.323735 -9.936919,-9.974348 -9.936919,-9.974348 -19.945325,0 C 45.889567,94.485941 43.515106,95.710508 40.44227,92.315066 Z"
       id="path1" /></g></svg>
