<?xml version="1.0" encoding="UTF-8" standalone="no"?>
<!-- Created with Inkscape (http://www.inkscape.org/) -->

<svg
   width="65.373199mm"
   height="52.945267mm"
   viewBox="0 0 65.373199 52.945267"
   version="1.1"
   id="svg5"
   xml:space="preserve"
   inkscape:export-filename="Survey.svg"
   inkscape:export-xdpi="96"
   inkscape:export-ydpi="96"
   sodipodi:docname="dashboard.svg"
   inkscape:version="1.2 (dc2aedaf03, 2022-05-15)"
   xmlns:inkscape="http://www.inkscape.org/namespaces/inkscape"
   xmlns:sodipodi="http://sodipodi.sourceforge.net/DTD/sodipodi-0.dtd"
   xmlns="http://www.w3.org/2000/svg"
   xmlns:svg="http://www.w3.org/2000/svg"><sodipodi:namedview
     id="namedview7"
     pagecolor="#ffffff"
     bordercolor="#000000"
     borderopacity="0.25"
     inkscape:showpageshadow="2"
     inkscape:pageopacity="0.0"
     inkscape:pagecheckerboard="0"
     inkscape:deskcolor="#d1d1d1"
     inkscape:document-units="mm"
     showgrid="false"
     inkscape:zoom="4.1827393"
     inkscape:cx="123.60321"
     inkscape:cy="100.17359"
     inkscape:window-width="1920"
     inkscape:window-height="1017"
     inkscape:window-x="-8"
     inkscape:window-y="-8"
     inkscape:window-maximized="1"
     inkscape:current-layer="layer1" /><defs
     id="defs2" /><g
     inkscape:label="Capa 1"
     inkscape:groupmode="layer"
     id="layer1"
     transform="translate(-67.857835,-161.75184)"><path
       style="fill:#172554;stroke-width:0.264583;fill-opacity:1"
       d="m 83.591363,214.3138 c -0.0809,-0.21086 -0.10591,-0.5987 -0.0555,-0.86186 l 0.0916,-0.47847 3.5323,-0.1323 3.5323,-0.13229 1.01531,-2.51354 c 0.55842,-1.38245 1.02134,-2.66237 1.02872,-2.84427 l 0.0134,-0.33073 H 82.155543 71.56167 l -1.047498,-0.53439 -1.047498,-0.5344 -0.727899,-1.09977 -0.727899,-1.09978 -0.07652,-18.6726 -0.07652,-18.6726 0.305562,-1.11099 0.305563,-1.11099 0.943229,-0.94323 0.943229,-0.94323 0.944391,-0.27326 0.944391,-0.27326 28.858969,0.0785 28.85898,0.0785 1.12585,0.74511 1.12586,0.7451 0.50258,1.10698 0.50259,1.10698 0.006,18.8621 0.006,18.86211 -0.52672,1.03246 -0.52673,1.03247 -0.97372,0.74293 -0.97372,0.74293 -10.93497,0.0746 c -6.01425,0.041 -10.93499,0.12131 -10.93499,0.17845 0,0.18897 1.64361,4.23125 2.01863,4.96462 l 0.36805,0.71972 3.37072,0.074 3.37072,0.074 v 0.79375 0.79375 l -16.87473,0.0681 -16.874737,0.0681 z m 24.755057,-1.80335 c -0.007,-0.18191 -0.47052,-1.46183 -1.0292,-2.84428 l -1.01578,-2.51354 -5.54871,-0.0713 -5.548717,-0.0713 -0.25994,0.33589 c -0.24444,0.31585 -2.19466,5.08311 -2.19466,5.36479 0,0.0718 3.51235,0.13046 7.805207,0.13046 h 7.80521 z m 21.65188,-7.75513 c 0.32425,-0.22711 0.76746,-0.75698 0.98491,-1.17748 l 0.39537,-0.76455 v -1.46835 -1.46835 H 100.55462 69.730667 v 1.28344 1.28343 l 0.29915,0.85814 0.29915,0.85815 0.825329,0.50326 0.82533,0.50327 28.714564,0.001 28.71456,0.001 0.58955,-0.41294 z m 1.38028,-22.75124 v -16.02043 l -0.40136,-0.77614 -0.40135,-0.77613 -0.78287,-0.40484 -0.78286,-0.40483 -28.70865,0.0696 -28.70865,0.0696 -0.86494,0.86485 -0.864941,0.86486 -0.07227,15.92786 c -0.03975,8.76032 -0.01372,16.08043 0.05784,16.26691 l 0.130107,0.33906 h 30.699964 30.69997 z m -49.477077,13.34868 -1.190628,-0.23252 -1.5875,-0.7809 -1.5875,-0.78089 -1.096593,-0.93872 -1.096592,-0.93872 -0.933644,-1.40659 -0.933643,-1.40659 -0.549451,-1.63103 -0.549451,-1.63102 v -2.09714 -2.09714 l 0.531993,-1.7224 0.531994,-1.72239 1.184008,-1.60837 1.184008,-1.60836 1.128269,-0.83133 c 0.620548,-0.45724 1.723581,-1.09911 2.451186,-1.4264 l 1.322916,-0.59506 0.480418,0.1775 0.480417,0.17749 1.748883,5.31651 1.74889,5.3165 4.56318,2.68916 c 2.50975,1.47904 4.70133,2.85561 4.87016,3.05905 l 0.30698,0.36988 -0.174,0.54822 c -0.0957,0.30152 -0.82998,1.25676 -1.63173,2.12275 l -1.45773,1.57452 -1.41741,0.81096 -1.41741,0.81096 -1.80137,0.38169 c -1.99562,0.42285 -3.3238,0.44895 -5.10865,0.10038 z m 4.20157,-1.82015 1.36339,-0.25856 1.42591,-0.6982 1.42592,-0.6982 1.14942,-1.17564 1.14941,-1.17564 -0.39687,-0.23934 c -0.21828,-0.13163 -2.24235,-1.34494 -4.49792,-2.69624 l -4.10104,-2.45691 -1.59922,-4.81831 c -0.87957,-2.65008 -1.672177,-4.89128 -1.76135,-4.98045 l -0.16213,-0.16213 -0.858501,0.44395 c -0.472175,0.24417 -1.41424,0.99968 -2.093477,1.67892 l -1.234978,1.23498 -0.775381,1.58173 -0.775381,1.58173 v 2.77812 2.77813 l 0.711246,1.51759 0.711245,1.5176 1.343035,1.34303 1.343036,1.34304 1.431947,0.65557 c 2.318469,1.06143 4.047389,1.31379 6.201689,0.90523 z m 16.181877,1.1973 -0.31884,-0.38417 0.17198,-0.54187 0.17198,-0.54186 h 0.77592 0.77592 l 0.004,-4.0349 0.004,-4.03489 0.24795,-0.39214 0.24795,-0.39213 2.92785,-0.0981 2.92785,-0.0981 0.65661,0.43023 0.6566,0.43022 v 4.11699 4.117 l 0.33073,-0.10992 0.33073,-0.10992 0.1323,-5.53453 0.13229,-5.53452 3.50573,-0.0738 c 1.92815,-0.0406 3.52938,-0.0406 3.55829,0 0.0289,0.0406 0.11821,2.57414 0.19844,5.63008 l 0.14587,5.55625 0.26459,-0.0658 0.26458,-0.0658 0.13229,-7.73944 0.13229,-7.73943 3.27009,-0.0745 3.27009,-0.0745 0.36793,0.30535 0.36794,0.30536 v 7.64052 7.64052 h 0.78444 0.78444 l 0.27336,0.51079 0.27337,0.51079 -0.41525,0.41525 -0.41525,0.41525 h -13.31006 -13.31016 z m 7.1883,-1.79863 c 0.0614,-0.1819 0.0615,-1.72342 2e-4,-3.4256 l -0.11151,-3.09487 -0.40667,-0.0801 c -0.22367,-0.0441 -0.98493,-0.0389 -1.69168,0.0115 l -1.28501,0.0917 v 3.41405 3.41405 h 1.69148 1.69149 z m 8.35154,-4.49792 0.0722,-4.69635 h -1.85819 -1.85819 v 4.58611 4.58611 l 0.18758,0.18758 0.18758,0.18758 1.59836,-0.0773 1.59836,-0.0773 z m 8.20037,-2.24896 0.0705,-6.94531 h -1.85648 -1.85647 v 6.83507 6.83507 l 0.18757,0.18758 0.18758,0.18758 1.59836,-0.0773 1.59836,-0.0773 z m -33.129457,-0.26458 -4.74608,-2.84427 -0.27979,-0.47957 -0.27979,-0.47957 4.29204,-4.21679 4.29204,-4.21678 h 0.53045 0.53045 l 1.04527,1.32237 1.04527,1.32236 0.58695,1.52191 0.586937,1.5219 0.1252,2.29635 0.1252,2.29635 -0.55128,1.80469 c -0.303207,0.99258 -0.740837,2.07259 -0.972507,2.40001 l -0.42124,0.59531 h -0.58151 -0.58152 z m 5.65887,-1.43122 c 0.15414,-0.71874 0.28026,-1.82419 0.28026,-2.45654 v -1.14973 l -0.53864,-1.74392 -0.53865,-1.74393 -0.63367,-0.73134 -0.63368,-0.73134 -3.02422,2.91042 c -1.66332,1.60072 -3.03852,3.02947 -3.056,3.175 l -0.0318,0.26458 3.63301,2.1551 3.633,2.1551 0.31506,-0.39829 c 0.17328,-0.21906 0.44117,-0.98636 0.59531,-1.70511 z m -12.76853,-3.23523 c -0.0774,-0.20183 -0.93849,-2.78433 -1.91343,-5.73888 l -1.77261,-5.37191 0.25689,-0.41268 0.25689,-0.41268 1.16521,-0.30944 c 1.52169,-0.4041 3.57275,-0.42513 5.31938,-0.0545 l 1.40209,0.29749 1.32291,0.65981 c 0.72761,0.3629 1.83555,1.07586 2.4621,1.58435 l 1.13918,0.92455 -0.0808,0.56555 -0.0808,0.56555 -4.12457,4.03489 -4.12457,4.0349 h -0.54348 -0.54348 z m 7.19116,-8.28368 0.0368,-0.31628 -2.02967,-1.00311 -2.02966,-1.00312 -2.18131,-0.004 c -1.19972,-0.002 -2.24447,0.0595 -2.32167,0.13653 -0.0772,0.077 0.46057,1.96434 1.19506,4.19404 l 1.33543,4.05398 2.97912,-2.87112 c 1.63851,-1.57912 2.99567,-3.01345 3.0159,-3.1874 z m 11.612317,0.15682 -0.46302,-0.26371 v -0.46311 c 0,-0.2547 0.14287,-0.60597 0.3175,-0.7806 l 0.3175,-0.3175 h 11.17297 11.17298 l 0.41577,0.41577 c 0.52316,0.52317 0.52227,0.76285 -0.005,1.28994 l -0.4206,0.4206 -11.02263,-0.0188 -11.02264,-0.0188 -0.46302,-0.26372 z m -0.18559,-4.32298 -0.32115,-0.38696 0.17198,-0.54187 0.17198,-0.54186 h 11.45915 11.45915 l 0.34778,0.41905 0.34778,0.41906 -0.27801,0.44084 -0.27801,0.44084 -11.37975,0.0689 -11.37975,0.0689 z"
       id="path1174" /></g></svg>
