<?xml version="1.0" encoding="UTF-8" standalone="no"?>
<!-- Created with Inkscape (http://www.inkscape.org/) -->

<svg
   width="59.532196mm"
   height="59.557953mm"
   viewBox="0 0 59.532196 59.557953"
   version="1.1"
   id="svg5"
   xml:space="preserve"
   inkscape:export-filename="data.svg"
   inkscape:export-xdpi="96"
   inkscape:export-ydpi="96"
   sodipodi:docname="data.svg"
   inkscape:version="1.2 (dc2aedaf03, 2022-05-15)"
   xmlns:inkscape="http://www.inkscape.org/namespaces/inkscape"
   xmlns:sodipodi="http://sodipodi.sourceforge.net/DTD/sodipodi-0.dtd"
   xmlns="http://www.w3.org/2000/svg"
   xmlns:svg="http://www.w3.org/2000/svg"><sodipodi:namedview
     id="namedview7"
     pagecolor="#ffffff"
     bordercolor="#000000"
     borderopacity="0.25"
     inkscape:showpageshadow="2"
     inkscape:pageopacity="0.0"
     inkscape:pagecheckerboard="0"
     inkscape:deskcolor="#d1d1d1"
     inkscape:document-units="mm"
     showgrid="false"
     inkscape:zoom="3.7183321"
     inkscape:cx="112.41599"
     inkscape:cy="112.68493"
     inkscape:window-width="1920"
     inkscape:window-height="1017"
     inkscape:window-x="-8"
     inkscape:window-y="-8"
     inkscape:window-maximized="1"
     inkscape:current-layer="layer1" /><defs
     id="defs2" /><g
     inkscape:label="Capa 1"
     inkscape:groupmode="layer"
     id="layer1"
     transform="translate(-105.22333,-159.60714)"><path
       style="fill:#172554;stroke-width:0.264583;fill-opacity:1"
       d="m 123.78877,218.90945 c -9.16686,-0.81529 -16.84561,-3.7766 -18.20035,-7.01894 l -0.36509,-0.87379 10e-4,-21.24131 0.002,-21.24131 0.27232,-0.98051 0.27232,-0.98051 1.14721,-1.14721 c 2.89168,-2.89168 8.87104,-4.7512 17.75208,-5.5207 l 3.43958,-0.29803 3.87049,0.16079 c 8.67543,0.3604 15.18788,1.88627 19.04569,4.46242 l 1.59624,1.06593 0.70837,1.06982 0.70838,1.06982 0.0773,8.05615 0.0773,8.05614 -0.42963,-0.16487 c -0.2363,-0.0907 -0.89614,-0.16486 -1.46633,-0.16486 h -1.03669 v -4.86157 -4.86157 l -2.06772,1.03092 -2.06772,1.03093 -3.11934,0.7878 c -1.71564,0.43329 -4.50149,0.96898 -6.19077,1.19043 l -3.07143,0.40263 -4.78061,0.002 c -8.6236,0.004 -16.13099,-1.33475 -20.20917,-3.60268 -0.63679,-0.35413 -1.26909,-0.64387 -1.4051,-0.64387 h -0.2473 l 0.0822,5.00645 0.0822,5.00644 0.66146,0.70377 c 2.08526,2.21861 8.63418,4.05072 16.53646,4.62619 l 3.70417,0.26975 3.04271,-0.17504 3.0427,-0.17503 -0.97035,1.07657 c -0.53369,0.59212 -1.10343,1.32524 -1.26608,1.62916 l -0.29573,0.55257 -2.30579,-5.3e-4 c -8.17402,-0.002 -17.0113,-1.64053 -20.89277,-3.87295 l -1.12448,-0.64674 v 4.88242 4.88243 l 0.85989,0.72825 c 2.58942,2.19298 11.00452,4.34587 16.98694,4.34587 1.0745,0 2.14197,0.0723 2.37215,0.1606 l 0.41852,0.1606 v 1.4585 1.45851 l -2.8444,-0.18384 c -7.25525,-0.46887 -13.84005,-1.97726 -16.90742,-3.87301 l -0.88581,-0.54746 v 4.89286 4.89285 l 0.8599,0.72825 c 3.16792,2.68292 16.41367,5.34313 22.25723,4.47001 l 1.09225,-0.1632 1.24264,1.44071 1.24264,1.44071 -1.21342,0.16632 c -1.59123,0.2181 -6.97793,0.15082 -10.0908,-0.12604 z m 15.25416,-44.55069 c 6.23295,-0.97888 11.16651,-2.99909 11.95136,-4.89388 l 0.31085,-0.75048 -0.29029,-0.54241 c -1.08101,-2.01989 -6.33286,-4.00424 -13.11548,-4.95554 l -3.175,-0.44531 -5.02708,0.006 -5.02708,0.006 -3.11368,0.43765 c -21.590186,3.0347 -14.45882,12.07645 9.19909,11.66338 l 5.55625,-0.097 z m 8.51373,44.39485 c -0.21828,-0.078 -0.5457,-0.32949 -0.7276,-0.55885 l -0.33073,-0.41701 v -1.38714 -1.38713 l -1.38906,-0.63875 -1.38906,-0.63875 -1.11857,1.01812 c -1.51321,1.37733 -4.41247,0.0139 -5.00693,-2.35467 l -0.16033,-0.63881 1.12096,-1.14218 1.12096,-1.14217 -0.52688,-1.41609 -0.52689,-1.41608 -1.51118,-0.13748 -1.51119,-0.13749 -0.37174,-0.5084 -0.37176,-0.50839 v -1.74264 -1.74265 l 0.41188,-0.58803 0.41188,-0.58804 1.50635,-0.003 1.50635,-0.003 0.67641,-1.44974 0.67641,-1.44973 -0.8854,-0.85817 c -0.48697,-0.47199 -0.95575,-1.13844 -1.04172,-1.48101 l -0.15633,-0.62285 1.54766,-1.56398 1.54766,-1.56397 h 0.56149 0.56149 l 1.09137,1.06981 1.09138,1.06982 0.73666,-0.37123 c 0.40517,-0.20417 1.0641,-0.44973 1.46428,-0.54569 l 0.7276,-0.17446 v -1.40916 -1.40916 l 0.48386,-0.43788 0.48385,-0.43789 h 2.01079 2.01079 l 0.41577,0.41578 0.41577,0.41577 0.005,1.50246 0.005,1.50245 1.46551,0.63455 1.46551,0.63454 0.98853,-0.96527 c 0.54367,-0.53091 1.21816,-0.96528 1.49885,-0.96528 h 0.51034 l 1.52902,1.51307 1.52903,1.51307 v 0.52744 c 0,0.29009 -0.47304,1.00942 -1.0512,1.59852 l -1.05119,1.07109 0.55941,1.51861 0.55942,1.51862 h 1.5408 1.54081 l 0.27389,0.51177 c 0.15064,0.28147 0.27389,1.35304 0.27389,2.38125 v 1.86948 l -0.52917,0.52916 -0.52916,0.52917 h -1.4027 -1.4027 l -0.57597,1.3633 -0.57598,1.36331 0.92034,1.0187 0.92034,1.01871 v 0.62043 0.62042 l -1.56786,1.49548 c -1.87124,1.78486 -2.07343,1.80822 -3.58568,0.41428 l -1.17297,-1.08121 -1.40081,0.52102 -1.4008,0.521 -0.13229,1.54615 -0.1323,1.54615 -0.66145,0.33306 c -0.65494,0.32978 -3.20346,0.43076 -3.96875,0.15725 z m 4.00621,-9.11928 c 1.36939,-0.41028 3.09674,-1.92887 3.69684,-3.25005 l 0.48742,-1.0731 0.006,-1.35884 0.006,-1.35885 -0.7391,-1.41928 -0.7391,-1.41928 -1.43201,-0.85989 -1.43201,-0.8599 -1.46691,0.006 -1.46691,0.006 -1.05834,0.48548 c -3.63952,1.66956 -4.68814,6.11737 -2.16414,9.17943 l 0.80373,0.97506 1.34167,0.62474 c 1.49031,0.69396 2.62457,0.78205 4.15724,0.32285 z"
       id="path1221" /></g></svg>
