<?xml version="1.0" encoding="UTF-8" standalone="no"?>
<!-- Created with Inkscape (http://www.inkscape.org/) -->

<svg
   width="105.21533mm"
   height="135.28493mm"
   viewBox="0 0 105.21533 135.28493"
   version="1.1"
   id="svg5"
   xml:space="preserve"
   inkscape:export-filename="as.svg"
   inkscape:export-xdpi="96"
   inkscape:export-ydpi="96"
   xmlns:inkscape="http://www.inkscape.org/namespaces/inkscape"
   xmlns:sodipodi="http://sodipodi.sourceforge.net/DTD/sodipodi-0.dtd"
   xmlns="http://www.w3.org/2000/svg"
   xmlns:svg="http://www.w3.org/2000/svg"><sodipodi:namedview
     id="namedview7"
     pagecolor="#ffffff"
     bordercolor="#000000"
     borderopacity="0.25"
     inkscape:showpageshadow="2"
     inkscape:pageopacity="0.0"
     inkscape:pagecheckerboard="0"
     inkscape:deskcolor="#d1d1d1"
     inkscape:document-units="mm"
     showgrid="false"
     showguides="false" /><defs
     id="defs2" /><g
     inkscape:label="Capa 1"
     inkscape:groupmode="layer"
     id="layer1"
     transform="translate(-55.306737,-47.721533)"><path
       style="fill:#e0f2fe;fill-opacity:1;stroke-width:0.264583"
       d="m 78.3208,182.5675 c -0.754629,-0.2624 -1.85579,-0.79721 -2.447023,-1.18847 -1.251471,-0.82819 -2.767232,-3.01114 -3.174179,-4.57137 -0.306004,-1.1732 -6.632787,-78.498344 -6.632787,-81.065074 0,-1.25976 0.121501,-1.69047 0.656101,-2.32581 0.360857,-0.42885 0.985935,-0.91583 1.389062,-1.08219 0.54124,-0.22334 11.056662,-0.28422 40.200726,-0.23275 l 39.46777,0.0697 0.71685,0.66146 c 1.61217,1.4876 1.74199,-1.51554 -1.85777,42.975764 -3.25145,40.18629 -3.29611,40.6579 -3.99859,42.22323 -0.81694,1.82039 -2.45771,3.47011 -4.29643,4.31989 l -1.2371,0.57174 -28.70729,0.0605 c -27.069514,0.057 -28.785565,0.0333 -30.07934,-0.41661 z m 11.24092,-8.34999 c 0.945481,-0.49194 1.802604,-1.4352 2.159148,-2.37614 0.222322,-0.58673 -0.173519,-8.36678 -1.709639,-33.60208 -1.099421,-18.06122 -2.126562,-33.30889 -2.282539,-33.88371 -0.817251,-3.01182 -4.522669,-4.0379 -6.704102,-1.85647 -0.558179,0.55818 -0.981618,1.29413 -1.096352,1.90551 -0.105074,0.55989 0.706835,15.47471 1.854052,34.05911 1.896822,30.72758 2.079358,33.1313 2.58418,34.02951 1.008118,1.79371 3.483057,2.61512 5.195252,1.72427 z m 20.62772,-0.33527 c 0.38035,-0.28398 0.93703,-0.84511 1.23706,-1.24698 0.54433,-0.72907 0.54551,-0.80405 0.54551,-34.69081 0,-33.88675 -10e-4,-33.96173 -0.54551,-34.6908 -1.95211,-2.61464 -5.6199,-2.53295 -6.99155,0.1557 -0.52561,1.03029 -0.53273,1.49171 -0.53273,34.55468 v 33.51046 l 0.55788,0.99261 c 0.80348,1.4296 2.16585,2.16712 3.76131,2.0362 0.70824,-0.0581 1.58433,-0.33459 1.96803,-0.62106 z m 19.92109,0.13786 c 2.15109,-1.20898 1.89579,0.99581 3.9633,-34.22763 2.21959,-37.81444 2.11585,-35.2026 1.44381,-36.34848 -0.86433,-1.47378 -1.80676,-2.01203 -3.52284,-2.01203 -1.71838,0 -2.94619,0.68403 -3.64159,2.02879 -0.33098,0.64003 -0.79787,7.32586 -2.37746,34.04424 -1.08108,18.28629 -1.89775,33.56963 -1.81482,33.96297 0.0829,0.39335 0.39989,1.03186 0.70434,1.41891 1.34942,1.71551 3.41516,2.16181 5.24526,1.13323 z M 57.668536,83.650736 c -0.885309,-0.17073 -2.142002,-1.56396 -2.334046,-2.58765 -0.130211,-0.69408 0.178323,-1.95444 1.341446,-5.47981 1.718364,-5.20828 2.31757,-6.30696 3.901067,-7.15287 l 1.124184,-0.60053 h 46.169783 46.16979 l 1.18039,0.66145 c 0.64921,0.36381 1.44493,1.05422 1.76826,1.53426 0.72961,1.08322 3.534,9.4222 3.53265,10.5045 -0.001,1.13024 -0.91588,2.48122 -1.98068,2.92612 -0.78358,0.3274 -7.89607,0.37589 -50.59576,0.34493 -27.32621,-0.0198 -49.950897,-0.0875 -50.277084,-0.1504 z M 88.60096,56.254356 c 0.07641,-2.82322 0.172114,-3.40637 0.742183,-4.52244 0.769694,-1.5069 2.02515,-2.67935 3.697724,-3.45326 1.175408,-0.54386 1.531553,-0.55712 14.962393,-0.55712 h 13.75834 l 1.32291,0.70398 c 3.0364,1.61579 4.13813,3.68287 4.31372,8.09342 l 0.11849,2.97656 h -4.13433 -4.13434 v -1.85208 -1.85209 H 107.87097 96.493893 v 1.85209 1.85208 h -3.990329 -3.990327 z"
       id="path1785" /></g></svg>
