<?xml version="1.0" encoding="UTF-8" standalone="no"?>
<!-- Created with Inkscape (http://www.inkscape.org/) -->

<svg
   width="43.703613mm"
   height="43.474693mm"
   viewBox="0 0 43.703613 43.474693"
   version="1.1"
   id="svg5"
   xml:space="preserve"
   inkscape:export-filename="a.svg"
   inkscape:export-xdpi="96"
   inkscape:export-ydpi="96"
   xmlns:inkscape="http://www.inkscape.org/namespaces/inkscape"
   xmlns:sodipodi="http://sodipodi.sourceforge.net/DTD/sodipodi-0.dtd"
   xmlns="http://www.w3.org/2000/svg"
   xmlns:svg="http://www.w3.org/2000/svg"><sodipodi:namedview
     id="namedview7"
     pagecolor="#ffffff"
     bordercolor="#000000"
     borderopacity="0.25"
     inkscape:showpageshadow="2"
     inkscape:pageopacity="0.0"
     inkscape:pagecheckerboard="0"
     inkscape:deskcolor="#d1d1d1"
     inkscape:document-units="mm"
     showgrid="false" /><defs
     id="defs2" /><g
     inkscape:label="Capa 1"
     inkscape:groupmode="layer"
     id="layer1"
     transform="translate(-69.653528,-88.607671)"><path
       style="fill:#ffffff;stroke-width:0.264583"
       d="m 86.055001,132.04334 -0.26189,-0.0882 v -3.22045 -3.22044 l 1.653646,-0.6191 c 2.875716,-1.07663 5.330904,-2.36814 8.180091,-4.30298 l 1.531659,-1.04013 0.468866,0.29315 c 0.257873,0.16124 0.967755,1.04498 1.577514,1.96386 l 1.108653,1.67071 0.31413,1.54776 0.31413,1.54776 -0.29774,1.08451 c -0.42865,1.56134 -1.327236,2.76282 -2.685106,3.59021 l -1.185635,0.72243 -5.228214,0.0795 c -2.875518,0.0438 -5.346065,0.0399 -5.490104,-0.009 z m -13.226473,-5.52802 c -0.906019,-0.16463 -2.298915,-1.2623 -2.778403,-2.18953 l -0.396597,-0.76693 v -1.70062 -1.70062 l 0.400426,-0.95836 c 0.547899,-1.3113 0.806471,-1.20209 0.706177,0.29826 l -0.08402,1.25693 0.422894,1.00318 0.422895,1.00318 1.234282,0.78276 1.234282,0.78276 h 2.52014 c 2.327237,0 5.313759,-0.44863 5.313759,-0.79822 0,-0.0818 -1.008727,-0.0406 -2.241616,0.0916 -1.232889,0.13217 -2.893755,0.15882 -3.690814,0.0592 l -1.449199,-0.18106 -0.846363,-0.57794 c -1.825088,-1.24627 -2.256782,-3.31628 -1.23926,-5.94237 l 0.586913,-1.51474 0.140691,-5.42396 0.14069,-5.42396 5.027083,-0.0751 c 2.764896,-0.0413 5.265208,-0.0162 5.55625,0.0558 l 0.529167,0.13091 0.353491,0.87027 c 1.538615,3.78793 4.376531,7.3823 7.930528,10.04443 l 1.40485,1.05231 -0.305559,0.36818 c -0.534758,0.64434 -6.983791,4.08972 -7.65511,4.08972 -0.150146,0 -0.272992,-0.40853 -0.272992,-0.90784 v -0.90783 l -4.167187,-0.12617 c -2.291953,-0.0694 -4.613672,-0.20967 -5.159375,-0.31173 l -0.992188,-0.18558 v 0.57126 c 0,0.85156 0.670932,1.98898 1.507831,2.5562 l 0.741128,0.50231 2.711979,-0.0389 2.711979,-0.0389 v 0.24587 c 0,0.13523 -0.267891,0.35355 -0.595313,0.48516 l -0.595312,0.23928 0.419265,0.0168 c 1.318695,0.0527 8.936965,-3.64467 12.642435,-6.13582 7.235235,-4.86417 12.999755,-11.93271 12.999755,-15.94048 v -0.84743 l -0.6035,-0.899019 c -0.65877,-0.98135 -1.85138,-1.66463 -3.49754,-2.00385 -1.57424,-0.3244 -1.28467,-0.71682 0.72871,-0.98755 l 1.78705,-0.24029 1.50476,0.33675 1.50477,0.33675 0.70962,0.70962 0.70961,0.70962 0.29865,1.39254 c 0.54021,2.518889 0.007,4.576189 -1.98359,7.648809 l -1.41651,2.18685 -2.58299,2.59002 c -9.743296,9.76981 -23.689109,15.98106 -32.34862,14.40757 z m 27.071613,-6.48843 c -0.134898,-0.1819 -0.379532,-0.64605 -0.543637,-1.03144 l -0.298371,-0.7007 1.768007,-1.17605 c 3.65645,-2.4322 8.16279,-7.46883 9.58941,-10.71785 0.54866,-1.24955 1.35033,-0.91769 2.39677,0.99218 l 0.36242,0.66146 0.0912,5.36834 0.0912,5.36833 -0.32065,0.38635 -0.32065,0.38636 h -5.89242 -5.89242 l -0.15229,0.39687 c -0.18548,0.48334 -0.54887,0.5107 -0.878541,0.0662 z m -5.794007,-7.47587 c -1.370706,-1.41829 -2.49219,-2.69112 -2.49219,-2.82849 0,-0.13738 -0.344728,-0.75082 -0.766064,-1.36321 -3.921657,-5.69993 -0.78904,-11.210679 8.648713,-15.214389 1.146737,-0.48648 1.153637,-0.47289 1.202967,2.36796 l 0.0425,2.44828 1.32291,0.0762 c 1.79653,0.10341 3.4207,0.7653 4.22581,1.72211 l 0.66899,0.795039 v 1.45014 1.45013 l -0.68837,1.23298 c -1.7327,3.10356 -5.01456,6.83657 -8.130382,9.24805 l -1.542708,1.19397 z m 11.794316,-8.9283 c -0.001,-1.01684 -0.77158,-2.38024 -1.6821,-2.97684 l -0.65003,-0.42592 -1.41313,0.0808 -1.41312,0.0808 -0.0798,1.69193 c -0.0439,0.93056 -0.0178,1.85329 0.0578,2.05052 l 0.13761,0.3586 h 2.52184 2.52185 l -0.001,-0.8599 z m -23.015817,-3.17494 c -0.692246,-1.440309 -1.294008,-2.480939 -2.104349,-3.639079 -0.896834,-1.28176 -4.540723,-5.02603 -4.891285,-5.02603 -0.158042,0 -0.43606,-0.23812 -0.617818,-0.52917 l -0.33047,-0.52916 h 0.751046 c 3.269893,0 10.134342,4.84934 9.293476,6.56531 -0.456607,0.9318 -1.017789,2.935859 -1.032528,3.687289 -0.01823,0.92951 -0.476,0.70271 -1.068072,-0.52916 z m 3.008787,-5.341039 c -0.454152,-0.19766 -1.138762,-0.76978 -1.521354,-1.27139 l -0.695622,-0.912 v -0.98461 c 0,-1.1632 0.359956,-1.92158 1.298341,-2.73543 l 0.686034,-0.59499 1.501053,-3.3e-4 1.501055,-3.2e-4 0.767474,0.64579 0.767475,0.64579 0.318174,1.06196 0.318172,1.06197 -0.559538,1.19037 -0.559541,1.19036 -1.11851,0.54147 c -1.300369,0.62949 -1.588143,0.64667 -2.703213,0.16136 z"
       id="path356"
       sodipodi:nodetypes="ccccsscsscccsscccccscccsscccccsscccsscccsscsscssscsscsscccssccsscssscccccsccsccsscssscccccccssscssssccscccsscccscccsccccccsssscsssssscsscccccccccss" /></g></svg>
