<?xml version="1.0" encoding="UTF-8" standalone="no"?>
<!-- Created with Inkscape (http://www.inkscape.org/) -->

<svg
   width="7010.3296"
   height="6864.7524"
   viewBox="0 0 7010.3296 6864.7524"
   version="1.1"
   id="svg1"
   xml:space="preserve"
   xmlns:inkscape="http://www.inkscape.org/namespaces/inkscape"
   xmlns:sodipodi="http://sodipodi.sourceforge.net/DTD/sodipodi-0.dtd"
   xmlns="http://www.w3.org/2000/svg"
   xmlns:svg="http://www.w3.org/2000/svg"><sodipodi:namedview
     id="namedview1"
     pagecolor="#ffffff"
     bordercolor="#000000"
     borderopacity="0.25"
     inkscape:showpageshadow="2"
     inkscape:pageopacity="0.0"
     inkscape:pagecheckerboard="0"
     inkscape:deskcolor="#d1d1d1"
     inkscape:document-units="mm" /><defs
     id="defs1" /><g
     inkscape:label="Capa 1"
     inkscape:groupmode="layer"
     id="layer1"
     transform="translate(-972.9859,-877.04401)"><path
       style="fill:#ffffff;fill-opacity:1"
       d="M 972.98591,5407.3019 V 3072.8073 h 931.05939 931.0593 v 232.7649 232.7648 h -698.2945 -698.2945 v 1868.9649 1868.9646 h 3039.635 3039.635 V 5407.3019 3538.337 h -698.294 -698.295 v -232.7648 -232.7649 h 931.059 931.06 V 5407.3019 7741.7965 H 4478.1506 972.98591 Z M 4245.3858,3823.0568 V 1547.3633 l -60.0216,119.5944 c -90.2891,179.9028 -177.291,282.2661 -589.6647,693.7783 l -377.2348,376.4467 -153.8534,-153.8535 -153.8535,-153.8535 129.901,-131.1638 c 71.4456,-72.1402 424.4962,-421.4373 784.5568,-776.2159 l 654.6558,-645.05202 779.502,779.41202 779.502,779.412 -153.7926,154.2301 -153.7927,154.2301 -367.0509,-366.3273 c -404.3629,-403.5658 -491.8957,-505.3798 -588.0932,-684.042 l -64.8439,-120.431 -0.1933,2262.6112 -0.1933,2262.6113 h -232.7649 -232.7648 z"
       id="path1" /></g></svg>
