<?xml version="1.0" encoding="UTF-8" standalone="no"?>
<!-- Created with Inkscape (http://www.inkscape.org/) -->

<svg
   width="134.90569mm"
   height="135.55405mm"
   viewBox="0 0 134.90569 135.55405"
   version="1.1"
   id="svg5"
   xml:space="preserve"
   inkscape:export-filename="asdas.svg"
   inkscape:export-xdpi="96"
   inkscape:export-ydpi="96"
   xmlns:inkscape="http://www.inkscape.org/namespaces/inkscape"
   xmlns:sodipodi="http://sodipodi.sourceforge.net/DTD/sodipodi-0.dtd"
   xmlns="http://www.w3.org/2000/svg"
   xmlns:svg="http://www.w3.org/2000/svg"><sodipodi:namedview
     id="namedview7"
     pagecolor="#ffffff"
     bordercolor="#000000"
     borderopacity="0.25"
     inkscape:showpageshadow="2"
     inkscape:pageopacity="0.0"
     inkscape:pagecheckerboard="0"
     inkscape:deskcolor="#d1d1d1"
     inkscape:document-units="mm"
     showgrid="false"
     showguides="false" /><defs
     id="defs2" /><g
     inkscape:label="Capa 1"
     inkscape:groupmode="layer"
     id="layer1"
     transform="translate(-32.977921,-52.891287)"><path
       style="fill:#e0f2fe;fill-opacity:1;stroke-width:0.169664"
       d="m 56.152392,188.32278 c -5.76219,-0.67634 -11.236669,-3.37152 -15.454761,-7.60865 -1.073124,-1.07797 -2.394854,-2.58563 -2.937176,-3.35037 -2.017457,-2.84484 -3.590717,-6.46269 -4.401113,-10.12076 l -0.381422,-1.72171 v -38.59856 c 0,-37.12151 0.0122,-38.65699 0.318941,-40.12554 0.758456,-3.63121 2.324954,-7.26777 4.401382,-10.21763 1.531504,-2.17571 4.577995,-5.16006 6.731996,-6.59469 3.246955,-2.16255 6.235491,-3.40484 10.051675,-4.1783 l 1.909636,-0.38704 h 27.824894 27.824896 l 1.0242,0.53558 c 1.20181,0.62845 2.32468,1.78083 2.83085,2.90526 0.27668,0.6146 0.36351,1.15575 0.37352,2.32774 0.0114,1.34032 -0.0444,1.64397 -0.45702,2.48413 -0.57251,1.16582 -1.69066,2.22943 -2.97834,2.83307 l -0.96287,0.45137 -27.655236,0.0877 -27.65523,0.0877 -1.167302,0.37316 c -5.508611,1.761 -9.297575,5.76774 -10.563761,11.17093 -0.301899,1.28829 -0.31508,2.88478 -0.31508,38.16163 0,34.36199 0.01968,36.90542 0.295203,38.14186 1.047703,4.70177 4.03395,8.46485 8.296712,10.455 3.01348,1.40689 -1.161959,1.27169 40.949973,1.32594 41.171601,0.053 38.713551,0.11082 41.423131,-0.97386 2.57772,-1.0319 4.74269,-2.66252 6.3276,-4.76586 1.23122,-1.63395 1.8289,-2.76975 2.49229,-4.73621 l 0.48651,-1.44214 0.0848,-26.80691 c 0.0784,-24.77392 0.10683,-26.86174 0.37488,-27.52984 0.9899,-2.46735 2.94813,-3.81442 5.56336,-3.82706 2.32469,-0.0113 4.1989,1.21287 5.23237,3.41746 l 0.45138,0.96287 0.0499,26.12825 c 0.0355,18.57192 -0.005,26.61748 -0.14128,27.81991 -0.99841,8.83332 -6.49325,16.64228 -14.56011,20.69203 -1.8402,0.92382 -4.31402,1.7807 -6.72621,2.32983 l -1.69664,0.38623 -38.004731,0.0275 c -20.902605,0.0151 -38.570449,-0.0389 -39.261877,-0.12009 z m 19.234492,-30.07921 c -1.333107,-0.32387 -2.325706,-0.87923 -3.508363,-1.96292 -1.836334,-1.68266 -2.842382,-4.21337 -2.599138,-6.53811 0.156467,-1.49542 7.60018,-23.7861 8.226832,-24.6358 1.037332,-1.40654 61.962785,-67.91715 62.851335,-68.61303 3.23934,-2.53695 6.37872,-3.61025 10.53684,-3.60238 3.54972,0.007 6.13215,0.72993 9.00892,2.52294 1.54005,0.95987 3.90189,3.16348 4.92033,4.5907 1.02664,1.4387 2.16145,3.91551 2.6363,5.75389 0.56474,2.18639 0.56492,6.12565 3.4e-4,8.2287 -0.51356,1.91316 -1.69215,4.37276 -2.80135,5.84611 -0.49478,0.65722 -12.68384,14.09789 -27.0868,29.86816 -37.683151,41.2605 -35.00592,38.36697 -35.93395,38.83724 -1.886831,0.95612 -21.733293,9.5684 -22.459587,9.74622 -1.005327,0.24614 -2.682844,0.22768 -3.791758,-0.0417 z m 14.102725,-17.03276 c 3.35188,-1.47308 6.09432,-2.76855 6.09432,-2.87883 0,-0.11027 -1.75602,-1.80428 -3.90227,-3.76445 -3.392797,-3.09866 -3.929165,-3.52817 -4.108253,-3.28983 -0.11329,0.15077 -1.097983,2.95459 -2.188203,6.2307 -1.090221,3.27611 -2.01732,6.052 -2.060218,6.16865 -0.0429,0.11664 -0.04463,0.21208 -0.0039,0.21208 0.04078,0 2.816595,-1.20525 6.168474,-2.67832 z m 40.289321,-40.24667 c 13.76403,-15.07041 25.23222,-27.6732 25.48487,-28.00621 0.981,-1.29304 1.26993,-3.25448 0.72227,-4.90331 -0.35611,-1.07214 -1.56759,-2.43024 -2.69812,-3.02466 -0.75303,-0.39592 -1.06666,-0.45583 -2.39356,-0.45719 -1.37428,-0.001 -1.61709,0.0484 -2.42815,0.49766 -0.75237,0.4168 -5.09651,5.09525 -26.3092,28.33389 -13.97441,15.30907 -25.647661,28.10807 -25.940551,28.44223 l -0.53252,0.60756 3.93708,3.59105 3.937091,3.59106 0.59764,-0.63567 c 0.32871,-0.34962 11.85913,-12.96601 25.62315,-28.03641 z"
       id="path1661" /></g></svg>
