<?xml version="1.0" encoding="UTF-8" standalone="no"?>
<!-- Created with Inkscape (http://www.inkscape.org/) -->

<svg
   width="87.0093mm"
   height="91.533867mm"
   viewBox="0 0 87.0093 91.533867"
   version="1.1"
   id="svg5"
   xml:space="preserve"
   inkscape:export-filename="bitmap.png"
   inkscape:export-xdpi="96"
   inkscape:export-ydpi="96"
   sodipodi:docname="home.svg"
   inkscape:version="1.2 (dc2aedaf03, 2022-05-15)"
   xmlns:inkscape="http://www.inkscape.org/namespaces/inkscape"
   xmlns:sodipodi="http://sodipodi.sourceforge.net/DTD/sodipodi-0.dtd"
   xmlns="http://www.w3.org/2000/svg"
   xmlns:svg="http://www.w3.org/2000/svg"><sodipodi:namedview
     id="namedview7"
     pagecolor="#ffffff"
     bordercolor="#000000"
     borderopacity="0.25"
     inkscape:showpageshadow="2"
     inkscape:pageopacity="0.0"
     inkscape:pagecheckerboard="0"
     inkscape:deskcolor="#d1d1d1"
     inkscape:document-units="mm"
     showgrid="false"
     inkscape:zoom="2.4193914"
     inkscape:cx="164.50418"
     inkscape:cy="173.18405"
     inkscape:window-width="1920"
     inkscape:window-height="1017"
     inkscape:window-x="-8"
     inkscape:window-y="-8"
     inkscape:window-maximized="1"
     inkscape:current-layer="layer1" /><defs
     id="defs2" /><g
     inkscape:label="Capa 1"
     inkscape:groupmode="layer"
     id="layer1"
     transform="translate(-49.221112,-95.811498)"><path
       style="fill:#172554;stroke-width:0.264583;fill-opacity:1"
       d="m 64.354357,186.85159 c -1.511054,-0.5219 -2.658716,-1.46465 -3.576135,-2.9376 -0.575471,-0.92394 -0.577077,-0.96955 -0.70907,-20.10833 -0.132292,-19.1823 -0.132292,-19.1823 -4.540763,-19.31459 -5.3794,-0.16142 -6.307154,-0.88735 -6.307154,-4.93505 0,-2.64991 -0.241345,-2.37813 20.565225,-23.15819 22.662015,-22.633142 21.467535,-21.727262 25.736865,-19.518402 1.64675,0.852 39.840805,39.371912 40.217095,40.560212 1.48438,4.68756 -0.3757,6.88667 -5.96431,7.05143 -4.48715,0.13229 -4.48715,0.13229 -4.61944,19.32642 -0.14635,21.23256 -0.003,19.5394 -1.82019,21.50979 -1.751,1.89869 -1.66021,1.88524 -13.32721,1.97414 -10.517195,0.0801 -10.517195,0.0801 -10.518185,-13.09688 -0.001,-16.88478 0.40229,-15.95239 -6.90519,-15.95414 -7.21337,-0.002 -6.85121,-0.85129 -6.85174,16.07244 -4.1e-4,13.03073 -4.1e-4,13.03073 -9.988441,13.02209 -8.981537,-0.008 -10.129432,-0.0575 -11.391357,-0.49334 z"
       id="path955"
       sodipodi:nodetypes="ssssssssssssccscs" /></g></svg>
