<?xml version="1.0" encoding="UTF-8" standalone="no"?>
<!-- Created with Inkscape (http://www.inkscape.org/) -->

<svg
   width="60.321091mm"
   height="68.878975mm"
   viewBox="0 0 60.321091 68.878975"
   version="1.1"
   id="svg5"
   xml:space="preserve"
   sodipodi:docname="logout.svg"
   inkscape:version="1.2 (dc2aedaf03, 2022-05-15)"
   xmlns:inkscape="http://www.inkscape.org/namespaces/inkscape"
   xmlns:sodipodi="http://sodipodi.sourceforge.net/DTD/sodipodi-0.dtd"
   xmlns="http://www.w3.org/2000/svg"
   xmlns:svg="http://www.w3.org/2000/svg"><sodipodi:namedview
     id="namedview7"
     pagecolor="#ffffff"
     bordercolor="#000000"
     borderopacity="0.25"
     inkscape:showpageshadow="2"
     inkscape:pageopacity="0.0"
     inkscape:pagecheckerboard="0"
     inkscape:deskcolor="#d1d1d1"
     inkscape:document-units="mm"
     showgrid="false"
     inkscape:zoom="1.1258625"
     inkscape:cx="292.66452"
     inkscape:cy="137.67223"
     inkscape:window-width="1920"
     inkscape:window-height="1009"
     inkscape:window-x="-8"
     inkscape:window-y="-8"
     inkscape:window-maximized="1"
     inkscape:current-layer="layer1" /><defs
     id="defs2" /><g
     inkscape:label="Capa 1"
     inkscape:groupmode="layer"
     id="layer1"
     transform="translate(-97.628924,-116.62581)"><path
       style="fill:#082f49;stroke-width:0.0703218;fill-opacity:1"
       d="m 126.17342,185.48625 c -0.17405,-0.0149 -0.72783,-0.0617 -1.23063,-0.104 -0.5028,-0.0423 -1.46283,-0.16853 -2.13338,-0.28053 -10.9278,-1.8253 -19.97978,-9.50796 -23.563486,-19.99895 -2.39791,-7.01966 -2.12086,-14.65548 0.777866,-21.43922 2.49118,-5.82996 6.76465,-10.68161 12.36656,-14.0397 0.66842,-0.40069 2.32487,-1.26788 2.42181,-1.26788 0.0217,0 0.0394,2.22346 0.0394,4.94103 v 4.94102 l -0.54341,0.42101 c -0.78223,0.60604 -2.71715,2.5469 -3.39925,3.40969 -1.36382,1.72509 -2.70839,4.12407 -3.40928,6.08283 -0.42334,1.18311 -0.8301,2.78423 -1.01997,4.01489 -0.19164,1.24217 -0.26374,3.90565 -0.1412,5.2163 0.2496,2.66971 0.92234,5.02095 2.1493,7.5119 1.07536,2.18314 2.31176,3.91806 4.00803,5.62406 2.63276,2.64784 5.82401,4.54214 9.34811,5.54894 2.02188,0.57764 3.73697,0.81034 5.97234,0.81034 3.46077,0 6.41292,-0.68766 9.50314,-2.21364 1.36858,-0.67582 2.34033,-1.27069 3.44576,-2.10936 4.59321,-3.4848 7.5196,-8.46981 8.3812,-14.2771 0.17916,-1.20758 0.17869,-4.56429 -8.1e-4,-5.76638 -0.63621,-4.26063 -2.28791,-7.89941 -5.04511,-11.11465 -0.69173,-0.80664 -2.08344,-2.15066 -2.81076,-2.71443 l -0.55968,-0.43383 v -4.94631 c 0,-2.72047 0.0164,-4.94631 0.0364,-4.94631 0.0638,0 1.45444,0.70907 2.03805,1.03921 0.95387,0.53958 2.91065,1.86834 3.79738,2.57863 2.89779,2.32118 5.2909,5.04522 7.12872,8.11447 3.78064,6.31388 5.0781,13.78816 3.65967,21.08233 -1.78691,9.18906 -7.83933,17.09296 -16.26024,21.23437 -3.23054,1.58879 -6.56411,2.558 -10.14821,2.9505 -0.92673,0.10149 -4.13241,0.18867 -4.80842,0.13077 z m 0.70322,-34.5257 c -0.60054,-0.12898 -1.49122,-0.57685 -1.94796,-0.97951 -0.4914,-0.43321 -1.01149,-1.22912 -1.22077,-1.86819 l -0.17156,-0.52388 v -13.7479 -13.7479 l 0.17156,-0.52388 c 0.20928,-0.63907 0.72937,-1.43498 1.22077,-1.86819 0.46805,-0.41263 1.35337,-0.85166 1.98312,-0.98342 1.92445,-0.40266 3.86109,0.54603 4.70488,2.30475 0.1712,0.35684 0.34559,0.8165 0.38752,1.02146 0.1073,0.52442 0.1073,27.06994 0,27.59436 -0.0419,0.20496 -0.21632,0.66462 -0.38752,1.02146 -0.84705,1.7655 -2.80576,2.71627 -4.74004,2.30084 z"
       id="path302" /></g></svg>
