<?xml version="1.0" encoding="UTF-8" standalone="no"?>
<!-- Created with Inkscape (http://www.inkscape.org/) -->

<svg
   width="512"
   height="512"
   viewBox="0 0 135.46667 135.46666"
   version="1.1"
   id="svg1"
   xml:space="preserve"
   xmlns:inkscape="http://www.inkscape.org/namespaces/inkscape"
   xmlns:sodipodi="http://sodipodi.sourceforge.net/DTD/sodipodi-0.dtd"
   xmlns="http://www.w3.org/2000/svg"
   xmlns:svg="http://www.w3.org/2000/svg"><sodipodi:namedview
     id="namedview1"
     pagecolor="#ffffff"
     bordercolor="#000000"
     borderopacity="0.25"
     inkscape:showpageshadow="2"
     inkscape:pageopacity="0.0"
     inkscape:pagecheckerboard="0"
     inkscape:deskcolor="#d1d1d1"
     inkscape:document-units="mm" /><defs
     id="defs1" /><g
     inkscape:label="Capa 1"
     inkscape:groupmode="layer"
     id="layer1"><path
       style="fill:#ffffff;fill-opacity:1;stroke-width:1.2989"
       d="M 59.510928,132.52468 C 39.521121,129.88905 22.837347,119.50547 11.99926,102.95458 -3.3002471,79.590609 -1.8064436,48.437041 15.690613,25.97083 18.566151,22.278659 24.965015,16.1897 28.947361,13.356142 47.856767,-0.09848041 72.987555,-2.6504745 94.282575,6.7214363 106.47935,12.089231 117.44129,21.8777 124.29243,33.518788 c 6.9765,11.854076 10.18696,26.521225 8.75108,39.979797 -1.66276,15.585343 -7.76177,28.664505 -18.52114,39.718105 -9.64521,9.90897 -21.875062,16.35045 -35.675282,18.79024 -5.268675,0.93147 -14.353373,1.17472 -19.33616,0.51775 z m 17.915758,-7.7255 c 17.728908,-3.0309 33.720154,-14.81465 42.042644,-30.980698 8.71883,-16.935917 8.78036,-36.349959 0.16876,-53.24109 C 107.5645,16.895796 81.358686,4.2718738 55.450947,9.656996 38.460086,13.188662 23.368312,24.710686 15.36125,40.264044 c -8.7966267,17.087045 -8.7966267,36.467394 0,53.554438 9.071994,17.621918 26.256261,29.341988 46.383519,31.634618 3.873913,0.44126 11.018413,0.14334 15.681917,-0.65392 z M 61.06278,102.21244 C 56.015411,101.13102 50.26757,98.383192 45.872095,94.950359 l -2.125941,-1.660348 2.206382,-2.554761 c 1.213513,-1.405114 2.346001,-2.601287 2.516637,-2.658166 0.170624,-0.05689 1.339494,0.675637 2.597469,1.627798 3.066905,2.321322 7.260894,4.300071 11.02179,5.200133 4.3181,1.03342 10.358675,0.806294 14.605893,-0.549177 5.060124,-1.614887 7.962147,-3.339155 11.810002,-7.017077 5.801511,-5.545277 8.823422,-12.672488 8.836528,-20.841043 C 97.354364,58.048924 94.430208,50.965681 88.572753,45.258859 77.038392,34.021165 58.221078,34.335902 47.117795,45.952227 41.740686,51.577802 39.329338,57.208352 38.978712,64.957141 l -0.193381,4.273729 2.66031,-2.990062 2.660296,-2.990075 1.258715,1.029497 c 0.692303,0.566218 1.942783,1.62837 2.778861,2.360315 l 1.520145,1.33083 -6.109274,6.946937 c -3.926779,4.465187 -6.279586,6.881602 -6.585984,6.764025 -0.80936,-0.310594 -15.260969,-9.198962 -15.260969,-9.386173 0,-0.417961 3.510597,-5.942235 3.776197,-5.942235 0.161363,0 1.540122,0.77325 3.063918,1.718345 1.523795,0.945082 2.83144,1.718332 2.905867,1.718332 0.07443,0 0.218332,-2.281095 0.319764,-5.069099 0.201057,-5.526534 0.800786,-8.401293 2.668116,-12.789455 4.682532,-11.003775 14.34619,-18.918498 26.272471,-21.517675 3.599962,-0.784563 11.36978,-0.800566 14.82533,-0.03052 13.718298,3.056975 23.999895,12.614135 27.789916,25.831865 3.65851,12.759112 0.0936,26.692225 -9.165012,35.820422 -5.598766,5.519923 -11.429708,8.664926 -18.915768,10.202526 -3.379771,0.69419 -10.887782,0.6803 -14.18545,-0.0262 z"
       id="path1" /></g></svg>
