<?xml version="1.0" encoding="UTF-8" standalone="no"?>
<!-- Created with Inkscape (http://www.inkscape.org/) -->

<svg
   width="52.395737mm"
   height="67.187874mm"
   viewBox="0 0 52.395737 67.187874"
   version="1.1"
   id="svg5"
   xml:space="preserve"
   inkscape:export-filename="Survey.svg"
   inkscape:export-xdpi="96"
   inkscape:export-ydpi="96"
   sodipodi:docname="survey.svg"
   inkscape:version="1.2 (dc2aedaf03, 2022-05-15)"
   xmlns:inkscape="http://www.inkscape.org/namespaces/inkscape"
   xmlns:sodipodi="http://sodipodi.sourceforge.net/DTD/sodipodi-0.dtd"
   xmlns="http://www.w3.org/2000/svg"
   xmlns:svg="http://www.w3.org/2000/svg"><sodipodi:namedview
     id="namedview7"
     pagecolor="#ffffff"
     bordercolor="#000000"
     borderopacity="0.25"
     inkscape:showpageshadow="2"
     inkscape:pageopacity="0.0"
     inkscape:pagecheckerboard="0"
     inkscape:deskcolor="#d1d1d1"
     inkscape:document-units="mm"
     showgrid="false"
     inkscape:zoom="3.2960747"
     inkscape:cx="98.905526"
     inkscape:cy="127.12091"
     inkscape:window-width="1920"
     inkscape:window-height="1017"
     inkscape:window-x="-8"
     inkscape:window-y="-8"
     inkscape:window-maximized="1"
     inkscape:current-layer="layer1" /><defs
     id="defs2" /><g
     inkscape:label="Capa 1"
     inkscape:groupmode="layer"
     id="layer1"
     transform="translate(-105.08827,-112.94631)"><path
       style="fill:#172554;stroke-width:0.264583;fill-opacity:1"
       d="m 107.08095,179.78161 -0.79375,-0.35259 -0.52916,-0.59304 -0.52917,-0.59304 -0.0703,-27.4228 -0.0703,-27.4228 0.2929,-0.70847 0.29291,-0.70848 0.53181,-0.48215 0.5318,-0.48215 4.53725,-0.13229 4.53724,-0.13229 0.0803,-1.24871 0.0803,-1.24871 0.68297,-0.53723 0.68298,-0.53723 h 2.61015 2.61015 v -1.07147 -1.07147 l 0.38884,-0.75193 0.38883,-0.75192 0.84127,-0.29327 0.84127,-0.29327 h 6.27104 6.27103 l 0.84127,0.29327 0.84128,0.29327 0.38883,0.75192 0.38884,0.75193 v 1.07147 1.07147 h 2.61015 2.61015 l 0.68297,0.53723 0.68298,0.53723 0.0803,1.24871 0.0803,1.24871 4.36563,0.13229 4.36562,0.13229 0.61772,0.35203 0.61771,0.35202 0.37447,0.89625 0.37448,0.89625 -0.004,27.06214 -0.004,27.06215 -0.32683,0.63595 -0.32683,0.63595 -0.74692,0.55468 -0.74692,0.55467 -23.72704,0.058 -23.72706,0.058 z m 47.69241,-29.33062 -0.0674,-26.78906 -4.03489,-0.073 -4.0349,-0.073 v 1.85898 1.85897 l -0.52917,0.52917 -0.52916,0.52916 h -14.28751 -14.2875 l -0.52917,-0.52916 -0.52916,-0.52917 v -1.85897 -1.85898 l -4.0349,0.073 -4.0349,0.073 -0.0674,26.78906 -0.0674,26.78906 h 23.55044 23.55043 z m -37.66035,18.12547 -0.2867,-0.19995 -0.97007,-1.45168 -0.97008,-1.45167 v -0.29325 -0.29326 l 0.48386,-0.43788 0.48385,-0.43788 h 0.42301 0.42301 l 0.61449,0.76955 0.61449,0.76955 1.32292,-1.68829 1.32291,-1.68829 0.59875,-0.16914 0.59875,-0.16914 0.39344,0.32652 0.39344,0.32653 v 0.61172 0.61172 l -2.05865,2.46474 -2.05864,2.46473 -0.52105,0.0677 -0.52104,0.0677 z m 10.53202,-1.53787 -0.58803,-0.41188 v -0.63145 -0.63145 l 0.58803,-0.41188 0.58804,-0.41188 h 9.46613 9.46613 l 0.52916,0.52917 0.52917,0.52917 v 0.39687 0.39688 l -0.52917,0.52916 -0.52916,0.52917 h -9.46613 -9.46613 z m -12.44137,-11.54729 -0.3175,-0.3175 v -0.42434 -0.42435 l 0.92759,-0.89906 0.92759,-0.89906 -0.92759,-0.94993 -0.92759,-0.94995 v -0.44255 -0.44256 l 0.52222,-0.27948 0.52222,-0.27948 1.06528,0.96242 1.06528,0.96242 1.06529,-0.96242 1.06528,-0.96242 0.52222,0.27948 0.52221,0.27948 v 0.38681 0.3868 l -0.90136,0.9977 -0.90136,0.9977 0.91801,1.00172 0.91801,1.00172 -0.0828,0.42038 -0.0828,0.42038 -0.45611,0.28723 -0.45612,0.28724 -1.06524,-1.04018 -1.06524,-1.04018 -1.00334,0.97974 -1.00334,0.97974 h -0.26666 -0.26666 z m 12.44137,-1.94646 -0.58803,-0.41188 v -0.63145 -0.63145 l 0.58803,-0.41188 0.58804,-0.41188 h 9.46613 9.46613 l 0.52916,0.52917 0.52917,0.52917 v 0.39687 0.39688 l -0.52917,0.52916 -0.52916,0.52917 h -9.46613 -9.46613 z m -10.31808,-10.0843 -0.33734,-0.13566 -1.0811,-1.59199 -1.0811,-1.59198 0.28829,-0.63272 0.28828,-0.63272 h 0.58651 0.58651 l 0.7068,0.67716 0.70681,0.67716 1.35856,-1.70733 1.35857,-1.70733 0.33035,-0.12569 0.33036,-0.12569 0.59532,0.22129 0.59531,0.22129 v 0.70668 0.70668 l -1.5126,1.84884 -1.5126,1.84885 -0.71022,0.76029 -0.71022,0.7603 -0.22458,-0.0209 -0.22457,-0.0209 z m 10.19307,-3.01877 -0.46302,-0.26968 v -0.72769 -0.72768 l 0.3175,-0.3175 0.3175,-0.3175 h 9.85005 9.85006 l 0.41578,0.41577 0.41577,0.41578 v 0.46926 0.46926 l -0.48385,0.43788 -0.48386,0.43788 -9.63646,-0.008 -9.63645,-0.008 z m 16.47031,-17.70589 v -2.91041 h -2.98979 -2.9898 l -0.3175,-0.3175 -0.3175,-0.3175 v -1.66688 -1.66687 h -6.08541 -6.08542 v 1.66687 1.66688 l -0.3175,0.3175 -0.3175,0.3175 h -2.98979 -2.98979 v 2.91041 2.91042 h 12.7 12.7 z"
       id="path1030" /></g></svg>
