<?xml version="1.0" encoding="UTF-8" standalone="no"?>
<!-- Created with Inkscape (http://www.inkscape.org/) -->

<svg
   width="121.94104mm"
   height="56.589951mm"
   viewBox="0 0 121.94104 56.589951"
   version="1.1"
   id="svg5"
   xml:space="preserve"
   inkscape:export-filename="toggle.svg"
   inkscape:export-xdpi="96"
   inkscape:export-ydpi="96"
   xmlns:inkscape="http://www.inkscape.org/namespaces/inkscape"
   xmlns:sodipodi="http://sodipodi.sourceforge.net/DTD/sodipodi-0.dtd"
   xmlns="http://www.w3.org/2000/svg"
   xmlns:svg="http://www.w3.org/2000/svg"><sodipodi:namedview
     id="namedview7"
     pagecolor="#ffffff"
     bordercolor="#000000"
     borderopacity="0.25"
     inkscape:showpageshadow="2"
     inkscape:pageopacity="0.0"
     inkscape:pagecheckerboard="0"
     inkscape:deskcolor="#d1d1d1"
     inkscape:document-units="mm"
     showgrid="false"
     showguides="false" /><defs
     id="defs2" /><g
     inkscape:label="Capa 1"
     inkscape:groupmode="layer"
     id="layer1"
     transform="translate(-51.088475,-26.335523)"><path
       style="fill:#e0f2fe;fill-opacity:1;stroke-width:0.264583"
       d="m 148.50145,82.776518 c 8.26994,-1.33766 15.3041,-5.76338 19.73695,-12.41798 10.25525,-15.39521 3.36387,-36.04902 -14.16238,-42.44531 -4.44082,-1.6207 -3.32514,-1.57859 -41.791,-1.57742 -29.539606,8e-4 -35.465356,0.0623 -37.470016,0.38836 -5.87334,0.95526 -10.71136,3.38331 -15.05993,7.55812 -4.95388,4.75592 -8.08499,11.25016 -8.57392,17.78319 -0.67041,8.95813 2.30747,16.92652 8.57392,22.94256 4.34857,4.17481 9.18659,6.60286 15.05993,7.55812 2.01362,0.3275 7.83439,0.38189 37.703116,0.35232 19.42703,-0.0192 35.61953,-0.0831 35.98333,-0.14196 z m -76.013876,-4.38742 c -7.0077,-2.19802 -12.24966,-6.66201 -15.30101,-13.03014 -2.06695,-4.31374 -2.87293,-8.84854 -2.36114,-13.28494 1.1883,-10.30068 8.42883,-18.62393 18.53437,-21.30594 l 2.24896,-0.59687 h 36.247906 36.24792 l 2.3487,0.59833 c 9.33923,2.37916 16.40843,9.75461 18.30074,19.09357 0.60929,3.00694 0.4189,8.56709 -0.38867,11.3507 -2.6703,9.20425 -10.08426,15.94031 -19.42511,17.64892 -1.50933,0.27609 -9.22892,0.3373 -38.00962,0.30142 l -36.115616,-0.045 z m 75.220126,-3.00821 c 9.02147,-1.74694 15.33321,-7.6641 17.32061,-16.23781 0.57971,-2.50087 0.52417,-6.85587 -0.12007,-9.41653 -1.89607,-7.53621 -7.92189,-13.50823 -15.49603,-15.35767 -1.21002,-0.29546 -2.87508,-0.44386 -4.87951,-0.43491 -3.76956,0.0168 -6.18317,0.61282 -9.5974,2.36981 -1.9731,1.01538 -2.89771,1.71466 -4.82246,3.64725 -4.36481,4.38258 -6.20259,8.77519 -6.21304,14.85025 -0.006,3.35896 0.63841,6.02824 2.22914,9.23659 2.61247,5.26912 7.2116,9.09696 12.89285,10.73066 1.90062,0.54654 7.12407,0.9148 8.68591,0.61236 z m -7.27604,-3.95763 c -2.98342,-0.71287 -5.34132,-2.09252 -7.83063,-4.58184 -3.55523,-3.55523 -5.11019,-7.28226 -5.0884,-12.19626 0.0366,-8.24335 5.57268,-15.04209 13.69114,-16.81367 3.97316,-0.867 8.79326,-0.0132 12.45452,2.20602 3.54916,2.1513 6.58362,6.24196 7.69571,10.37432 0.56401,2.09582 0.6362,6.17207 0.14524,8.20208 -0.5036,2.08229 -2.19629,5.46441 -3.52421,7.0416 -4.43551,5.26815 -10.83245,7.37128 -17.54337,5.76775 z"
       id="path1841" /></g></svg>
