<?xml version="1.0" encoding="UTF-8" standalone="no"?>
<!-- Created with Inkscape (http://www.inkscape.org/) -->

<svg
   width="121.94104mm"
   height="56.589951mm"
   viewBox="0 0 121.94104 56.589951"
   version="1.1"
   id="svg5"
   xml:space="preserve"
   inkscape:export-filename="delete.svg"
   inkscape:export-xdpi="96"
   inkscape:export-ydpi="96"
   xmlns:inkscape="http://www.inkscape.org/namespaces/inkscape"
   xmlns:sodipodi="http://sodipodi.sourceforge.net/DTD/sodipodi-0.dtd"
   xmlns="http://www.w3.org/2000/svg"
   xmlns:svg="http://www.w3.org/2000/svg"><sodipodi:namedview
     id="namedview7"
     pagecolor="#ffffff"
     bordercolor="#000000"
     borderopacity="0.25"
     inkscape:showpageshadow="2"
     inkscape:pageopacity="0.0"
     inkscape:pagecheckerboard="0"
     inkscape:deskcolor="#d1d1d1"
     inkscape:document-units="mm"
     showgrid="false"
     showguides="false" /><defs
     id="defs2" /><g
     inkscape:label="Capa 1"
     inkscape:groupmode="layer"
     id="layer1"
     transform="translate(-51.088475,-26.335523)"><path
       style="fill:#e0f2fe;fill-opacity:1;stroke-width:0.264583"
       d="m 75.616533,82.776518 c -8.269936,-1.33766 -15.304099,-5.76338 -19.736947,-12.41798 -10.255256,-15.39521 -3.363869,-36.04902 14.162375,-42.44531 4.440822,-1.6207 3.32514,-1.57859 41.790999,-1.57742 29.53961,8e-4 35.46536,0.0623 37.47002,0.38836 5.87334,0.95526 10.71136,3.38331 15.05993,7.55812 4.95388,4.75592 8.08499,11.25016 8.57392,17.78319 0.67041,8.95813 -2.30747,16.92652 -8.57392,22.94256 -4.34857,4.17481 -9.18659,6.60286 -15.05993,7.55812 -2.01362,0.3275 -7.83439,0.38189 -37.70312,0.35232 -19.427026,-0.0192 -35.619525,-0.0831 -35.983327,-0.14196 z m 76.013877,-4.38742 c 7.0077,-2.19802 12.24966,-6.66201 15.30101,-13.03014 2.06695,-4.31374 2.87293,-8.84854 2.36114,-13.28494 -1.1883,-10.30068 -8.42883,-18.62393 -18.53437,-21.30594 l -2.24896,-0.59687 H 112.26132 76.013408 l -2.348704,0.59833 c -9.339229,2.37916 -16.408428,9.75461 -18.300743,19.09357 -0.609284,3.00694 -0.418892,8.56709 0.388675,11.3507 2.670294,9.20425 10.084263,15.94031 19.425104,17.64892 1.509339,0.27609 9.22892,0.3373 38.00962,0.30142 l 36.11562,-0.045 z m -75.220127,-3.00821 c -9.021465,-1.74694 -15.333208,-7.6641 -17.32061,-16.23781 -0.579706,-2.50087 -0.524173,-6.85587 0.120075,-9.41653 1.896069,-7.53621 7.921891,-13.50823 15.496031,-15.35767 1.210019,-0.29546 2.875071,-0.44386 4.879504,-0.43491 3.769558,0.0168 6.183174,0.61282 9.597405,2.36981 1.973098,1.01538 2.897703,1.71466 4.822452,3.64725 4.364814,4.38258 6.20259,8.77519 6.21304,14.85025 0.006,3.35896 -0.638406,6.02824 -2.229136,9.23659 -2.612471,5.26912 -7.211604,9.09696 -12.892853,10.73066 -1.900613,0.54654 -7.124065,0.9148 -8.685908,0.61236 z m 7.276041,-3.95763 c 2.983418,-0.71287 5.341316,-2.09252 7.830634,-4.58184 3.555228,-3.55523 5.110186,-7.28226 5.088396,-12.19626 -0.0366,-8.24335 -5.572678,-15.04209 -13.69114,-16.81367 -3.973155,-0.867 -8.793257,-0.0132 -12.454516,2.20602 -3.549163,2.1513 -6.583625,6.24196 -7.695709,10.37432 -0.564019,2.09582 -0.636203,6.17207 -0.145247,8.20208 0.503598,2.08229 2.196294,5.46441 3.524211,7.0416 4.435509,5.26815 10.832456,7.37128 17.543371,5.76775 z"
       id="path1841" /></g></svg>
